<?xml version="1.0" encoding="UTF-8"?>
<svg xmlns="http://www.w3.org/2000/svg" width="48" height="35" viewBox="0 0 48 35" fill="none">
  <path d="M8.69143 16.9101L25.88 0H13.66L3.45429 16.9101C2.11143 19.1386 0.5 22.1536 0.5 25.5618C0.5 31.1985 4.93143 35 10.1686 35C15.54 35 19.4343 31.1985 19.4343 26.0861C19.4343 21.236 15.2714 16.9101 8.69143 16.9101ZM30.3114 16.9101L47.5 0H35.28L25.0743 16.9101C23.7314 19.1386 22.12 22.1536 22.12 25.5618C22.12 31.1985 26.5514 35 31.7886 35C37.16 35 41.0543 31.1985 41.0543 26.0861C41.0543 21.236 36.8914 16.9101 30.3114 16.9101Z" fill="#FFF000"></path>
</svg>
